<?xml version="1.0" encoding="UTF-8"?>
<svg id="Layer_1" data-name="Layer 1" xmlns="http://www.w3.org/2000/svg" width="100" height="100" viewBox="0 0 100 100">
  <defs>
    <style>
      .cls-1 {
        fill: none;
        stroke: #010101;
        stroke-linecap: round;
        stroke-linejoin: round;
        stroke-width: 1.594px;
      }
    </style>
  </defs>
  <path class="cls-1" d="m26.081,26.787c3.757-4.132,9.68-6.527,12.484-7.302,9.301-2.57,28.359-3.548,27.518,8.955-.731,10.881-28.188,16.92-28.188,16.92,0,0,1.861-.368,2.395-.474.631-.102,4.704-.921,6.205-1.146,4.562-.685,11.291-1.009,15.577,1.077,9.378,4.568,11.586,12.49,7.799,21.502-1.038,2.472-4.969,6.96-8.156,8.87-10.637,6.375-20.059,6.132-31.404,1.777-4.292-1.647-7.137-4.21-10.312-6.991"/>
</svg>