<?xml version="1.0" encoding="UTF-8"?>
<svg id="Layer_1" data-name="Layer 1" xmlns="http://www.w3.org/2000/svg" width="100" height="100" viewBox="0 0 100 100">
  <defs>
    <style>
      .cls-1 {
        fill: none;
        stroke: #010101;
        stroke-linecap: round;
        stroke-linejoin: round;
        stroke-width: 1.594px;
      }
    </style>
  </defs>
  <path class="cls-1" d="m20,79.967c1.277-1.622,1.391-4.354,2.134-6.28,3.919-10.16,7.255-20.684,11.187-30.875,1.804-4.675,4.738-18.066,6.637-17.954,2.287.136,4.677,11.021,5.543,14.59,1.329,5.48,4.118,15.076,5.554,20.461,1.012,3.798,3.516,18.244,5.664,18.169,1.953-.068,8.772-30.444,13.148-41.789,1.44-3.732,4.676-15.446,6.619-15.459,2.838-.019,4.254,13.654,4.563,14.815,3.903,14.639,6.945,28.961,8.738,43.992"/>
</svg>