<?xml version="1.0" encoding="UTF-8"?>
<svg id="Layer_1" data-name="Layer 1" xmlns="http://www.w3.org/2000/svg" width="100" height="100" viewBox="0 0 100 100">
  <defs>
    <style>
      .cls-1 {
        fill: none;
        stroke: #010101;
        stroke-linecap: round;
        stroke-linejoin: round;
        stroke-width: 1.594px;
      }
    </style>
  </defs>
  <path class="cls-1" d="m52.071,32.135c-1.683-1.158-2.892-1.715-4.772-2.008-7.45-1.165-14.757.123-20.986,4.45-3.672,2.55-9.543,9.083-4.109,12.392,9.202,5.602,23.741-3.272,31.554,3.318,4.205,3.546-.19,11.677-4.152,13.665-6.444,3.234-12.061,4.918-21.259,2.111-1.91-.582-3.009-.438-5.785-1.866"/>
  <path class="cls-1" d="m40.07,16.323c-.76,4.916-.003,9.664-1.277,13.504"/>
  <path class="cls-1" d="m35.824,67.729c-.254,3.469-.817,5.137-.811,8.163.003,1.975-.422,3.762-.419,5.691"/>
</svg>