<?xml version="1.0" encoding="UTF-8"?>
<svg id="Layer_1" data-name="Layer 1" xmlns="http://www.w3.org/2000/svg" width="100" height="100" viewBox="0 0 100 100">
  <defs>
    <style>
      .cls-1 {
        fill: none;
        stroke: #010101;
        stroke-linecap: round;
        stroke-linejoin: round;
        stroke-width: 1.594px;
      }
    </style>
  </defs>
  <path class="cls-1" d="m21.043,19.223c.925,3.34,1.037,20.169.823,24.315-.358,6.929-.848,14.427-.317,21.346.296,3.854-.59,10.732,1.428,12.768,2.104,2.124,9.056.006,10.66-.261,7.444-1.242,15.042-2.573,22.468-3.979,2.267-.429,6.063-1.148,8.373-1.646"/>
  <path class="cls-1" d="m67.949,73.584c-.925-3.34-1.037-20.169-.823-24.315.358-6.929.848-14.427.317-21.346-.296-3.854.59-10.732-1.428-12.768-2.104-2.124-9.056-.006-10.66.261-7.444,1.242-15.042,2.573-22.468,3.979-2.267.429-6.063,1.148-8.373,1.646"/>
  <g>
    <path class="cls-1" d="m27.896,25.731c2.088,3.26,5.699,9.354,7.802,12.298,4.898,6.857,7.379,10.188,12.658,16.786,4.015,5.018,8.624,11.648,11.531,17.46"/>
    <path class="cls-1" d="m26.249,72.152c3.171-6.41,4.86-9.319,6.797-12.364,6.752-10.609,20.627-29.607,20.627-29.607,0,0,2.716-3.885,4.524-7.249"/>
  </g>
</svg>