<?xml version="1.0" encoding="UTF-8"?>
<svg id="Layer_1" data-name="Layer 1" xmlns="http://www.w3.org/2000/svg" width="100" height="100" viewBox="0 0 100 100">
  <defs>
    <style>
      .cls-1 {
        fill: none;
        stroke: #010101;
        stroke-linecap: round;
        stroke-linejoin: round;
        stroke-width: 1.594px;
      }
    </style>
  </defs>
  <path class="cls-1" d="m57.354,17.296c-15.406-.141-27.904,7.509-27.25,17.083.523,7.659,10.77,11.41,24.592,11.129,9.843-.201,23.939-4.736,24.841-12.267,1.024-8.542-5.222-15.79-22.183-15.945Z"/>
  <path class="cls-1" d="m43.633,46.386c6.877-.475,20.354-.168,20.354-.168,11.338.593,28.173,11.768,15.75,24.446-2.152,2.196-13.984,15.482-44.748,7.924-4.868-1.196-12.011-4.11-14.087-9.15-5.139-12.477,12.956-22.846,22.732-23.052Z"/>
</svg>