<?xml version="1.0" encoding="UTF-8"?>
<svg id="Layer_1" data-name="Layer 1" xmlns="http://www.w3.org/2000/svg" width="100" height="100" viewBox="0 0 100 100">
  <defs>
    <style>
      .cls-1 {
        fill: none;
        stroke: #010101;
        stroke-linecap: round;
        stroke-linejoin: round;
        stroke-width: 1.594px;
      }
    </style>
  </defs>
  <path class="cls-1" d="m81.266,20.49c-8.921-2.281-16.136-4.951-26.923-3.622-8.033.989-12.983,3.634-19.542,8.576-4.92,3.707-8.91,7.929-11.581,13.492-5.34,11.121-3.97,23.838,3.601,33.258,3.425,4.262,8.742,7.176,13.479,9.265,13.55,5.977,30.138,2.835,38.608-10.321,2.986-4.638,5.329-9.887,5.611-15.218.123-2.32.469-4.444-.207-8.095"/>
  <path class="cls-1" d="m45.691,50.164c7.057-.505,14.08-1.955,21.165-2.154,4.609-.13,13.226-.818,17.405-.218"/>
</svg>