<?xml version="1.0" encoding="UTF-8"?>
<svg id="Layer_1" data-name="Layer 1" xmlns="http://www.w3.org/2000/svg" width="100" height="100" viewBox="0 0 100 100">
  <defs>
    <style>
      .cls-1 {
        fill: none;
        stroke: #010101;
        stroke-linecap: round;
        stroke-linejoin: round;
        stroke-width: 1.594px;
      }
    </style>
  </defs>
  <path class="cls-1" d="m20.387,82.523c1.665-2.989,7.238-14.642,9.534-18.712,6.306-11.182,11.399-21.913,17.017-33.378.53-1.082,4.114-10.079,5.61-10.278,1.616-.214,4.695,9.514,6.702,14.033,3.26,7.341,5.351,14.17,8.47,21.544,3.18,7.52,6.63,14.802,9.921,22.984"/>
  <path class="cls-1" d="m28.219,67.459c6.547-.2,9.568-.712,15.044-1.349,4.79-.558,9.807-.769,14.635-1.16,4.049-.327,8.683-.659,12.915-.997"/>
</svg>