<?xml version="1.0" encoding="UTF-8"?>
<svg id="Layer_1" data-name="Layer 1" xmlns="http://www.w3.org/2000/svg" width="100" height="100" viewBox="0 0 100 100">
  <defs>
    <style>
      .cls-1 {
        fill: none;
        stroke: #010101;
        stroke-linecap: round;
        stroke-linejoin: round;
        stroke-width: 1.594px;
      }
    </style>
  </defs>
  <path class="cls-1" d="m21.872,21.858c-1.43,6.686-.185,13.725.047,20.484.412,11.976.588,25.069-1.92,36.801"/>
  <path class="cls-1" d="m21.876,22.135c8.387-2.335,24.12-3.251,32.9-2.104,6.147.804,12.909,7.15,9.397,14.381-6.724,13.843-24.774,14.822-40.884,16.441"/>
  <path class="cls-1" d="m23.285,51.109c6.987-1.481,14.567-1.299,21.699-2.043,5.293-.553,12.892-.719,17.824,1.676,6.184,3.003,9.102,12.913,3.89,18.024-8.393,8.231-21.928,9.587-33.09,9.849-3.386.08-8.899.912-12.101.078"/>
</svg>