<?xml version="1.0" encoding="UTF-8"?>
<svg id="Layer_1" data-name="Layer 1" xmlns="http://www.w3.org/2000/svg" width="100" height="100" viewBox="0 0 100 100">
  <defs>
    <style>
      .cls-1 {
        fill: none;
        stroke: #010101;
        stroke-linecap: round;
        stroke-linejoin: round;
        stroke-width: 1.594px;
      }
    </style>
  </defs>
  <path class="cls-1" d="m21.043,19.223c.925,3.34,1.037,20.169.823,24.315-.358,6.929-.848,14.427-.317,21.346.296,3.854-.59,10.732,1.428,12.768,2.104,2.124,9.056.006,10.66-.261,7.444-1.242,15.042-2.573,22.468-3.979,2.267-.429,6.063-1.148,8.373-1.646"/>
  <path class="cls-1" d="m20,19.511c8.173-2.264,17.313-1.783,25.795-2.505,2.716-.231,5.525-.18,8.252-.191.925-.003,4.33-.137,4.142-.174"/>
  <path class="cls-1" d="m22.777,49.795c5.821-.789,9.649-1.058,13.654-1.761,5.186-.911,10.552-.771,15.646-1.864,2.335-.501,5.847-.721,8.817-1.395"/>
</svg>