<?xml version="1.0" encoding="UTF-8"?>
<svg id="Layer_1" data-name="Layer 1" xmlns="http://www.w3.org/2000/svg" width="100" height="100" viewBox="0 0 100 100">
  <defs>
    <style>
      .cls-1 {
        fill: none;
        stroke: #010101;
        stroke-linecap: round;
        stroke-linejoin: round;
        stroke-width: 1.594px;
      }
    </style>
  </defs>
  <path class="cls-1" d="m20.814,19.005c.579,7.483.157,17.388.253,23.39.07,4.503.711,12.307.834,17.842.09,4.069-.472,19.219-.497,19.126"/>
  <path class="cls-1" d="m20,18.845c2.579-1.732,8.716-1.245,11.806-1.568,5.421-.569,10.979-.956,16.425-1.233,3.503-.178,7.534-.077,10.898-1.006"/>
  <path class="cls-1" d="m22.175,51.793c3.104-.245,5.785-.946,7.66-1.257,6.331-1.052,12.602-2.397,19.024-3.024,2.836-.277,5.667-.675,8.49-1.036.983-.127,3.775-.611,3.675-.63"/>
</svg>